# Blender v2.90.0 OBJ File: 'asteroid3.blend'
# www.blender.org
mtllib asteroid3.mtl
o Icosphere
v -0.153412 -0.244145 -0.991915
v -0.110243 -0.618667 0.802238
v 0.091486 -0.903338 0.492037
v 0.728907 -0.618666 0.352753
v 0.168176 -0.984228 -0.241861
v 0.728907 -0.618666 -0.352753
v -0.345337 -0.717392 -0.641781
v 1.028588 0.080122 0.000000
v 0.250952 -0.058252 1.023511
v 0.809551 -0.169169 0.588169
v -0.527581 0.133251 0.866420
v -0.809551 0.169169 -0.588170
v 0.320427 -0.016834 -0.986169
v 0.315980 0.823253 0.518835
v 0.271479 0.988750 0.075774
v -0.328178 0.986375 0.076389
v -0.728907 0.618666 -0.352753
v 0.033949 0.929569 -0.406683
v 0.266867 0.541871 -0.821340
v 0.633860 0.727858 -0.365462
v -0.309574 0.650798 -0.726226
v -0.728907 0.618666 0.352753
v -0.309574 0.650798 0.726226
v 0.797043 0.618664 0.143055
v 0.784281 0.058976 -0.668241
v -0.382798 0.051414 -0.966164
v -0.960999 0.347860 0.145008
v -0.990774 -0.244143 0.160613
v 0.063762 0.375286 0.945295
v 0.714276 0.412294 0.605479
v -0.904210 -0.211502 -0.451843
v -0.712276 -0.307953 0.689282
v 0.355125 -0.412294 0.866418
v 0.960999 -0.347860 -0.145008
v 0.309574 -0.650798 -0.726227
v -0.474683 -0.918069 0.142474
v -0.760927 -0.629710 -0.265041
v 0.376289 -0.929569 0.157961
vt 0.818181 0.000000
vt 0.783700 0.059724
vt 0.826274 0.081994
vt 0.090909 0.000000
vt 0.056428 0.059724
vt 0.108036 0.082352
vt 0.386796 0.198798
vt 0.317918 0.117215
vt 0.346577 0.246678
vt 0.581688 0.135807
vt 0.465284 0.137358
vt 0.531743 0.244155
vt 0.872856 0.135807
vt 0.830960 0.234566
vt 0.931817 0.196826
vt 0.615472 0.188477
vt 0.854415 0.293267
vt 0.738011 0.294818
vt 0.760687 0.374300
vt 0.634672 0.336575
vt 0.554429 0.346394
vt 0.566023 0.436755
vt 0.510973 0.412658
vt 0.460637 0.325121
vt 0.386273 0.406129
vt 0.329155 0.412658
vt 0.363636 0.472382
vt 0.431191 0.335322
vt 0.352897 0.335024
vt 0.274418 0.336575
vt 0.236493 0.336575
vt 0.127143 0.336575
vt 0.175983 0.409384
vt 0.160927 0.283905
vt 0.987498 0.336575
vt 0.919829 0.335024
vt 0.931727 0.406129
vt 0.852662 0.374645
vt 0.897076 0.451573
vt 0.672597 0.336575
vt 0.711550 0.428359
vt 0.635995 0.251214
vt 0.454545 0.234784
vt 0.272727 0.260728
vt 0.248780 0.205466
vt 0.158658 0.198798
vt 0.942505 0.255543
vt 0.727272 0.211654
vt 0.239531 0.137991
vt 0.056428 0.255197
vt 0.073472 0.190928
vt 0.807442 0.177564
vt 0.728963 0.135807
vt 0.465086 0.050389
vt 0.543763 0.135807
vt 0.398117 0.097737
vt 0.284741 0.020809
vt 0.250090 0.066253
vt 0.159091 0.118096
vt 0.012502 0.135807
vt 0.691038 0.135807
vt 0.659000 0.066253
vt 0.613918 0.038876
vn 0.0421 -0.9926 0.1138
vn -0.0392 -0.9937 0.1054
vn -0.5371 -0.3500 -0.7675
vn 0.6339 -0.3684 -0.6800
vn -0.2765 -0.1935 0.9413
vn 0.8069 -0.3022 -0.5075
vn 0.3714 0.5219 0.7679
vn 0.5765 0.8170 -0.0096
vn 0.3235 0.9068 -0.2705
vn 0.2989 0.7750 -0.5568
vn -0.0041 0.9928 -0.1198
vn 0.0282 0.7380 -0.6742
vn -0.3555 0.8594 -0.3675
vn -0.3883 0.8470 -0.3631
vn -0.6761 0.7368 0.0000
vn -0.7593 0.6507 0.0000
vn -0.4372 0.7940 0.4225
vn -0.0034 0.9367 0.3502
vn -0.0915 0.8837 0.4590
vn 0.0605 0.6702 0.7397
vn 0.5365 0.8068 0.2475
vn 0.6096 0.6776 0.4115
vn 0.8824 0.4301 -0.1908
vn 0.9390 -0.0323 -0.3423
vn 0.8771 0.3474 -0.3317
vn 0.6050 0.4373 -0.6654
vn 0.5089 0.2881 -0.8112
vn -0.0216 0.0702 -0.9973
vn 0.0002 0.2830 -0.9591
vn -0.0805 0.3789 -0.9219
vn -0.5583 0.3662 -0.7444
vn -0.6129 0.4501 -0.6494
vn -0.9595 0.1542 -0.2358
vn -0.9163 0.3021 -0.2629
vn -0.9894 0.0461 -0.1374
vn -0.6166 0.4371 0.6547
vn -0.2647 0.3544 0.8968
vn -0.2533 -0.2672 0.9297
vn -0.1725 0.1023 0.9797
vn 0.4214 0.3341 0.8431
vn 0.6225 0.0788 0.7787
vn 0.9079 0.1370 0.3962
vn 0.9028 0.3087 0.2993
vn 0.5707 -0.3199 -0.7563
vn 0.1910 -0.3752 -0.9071
vn -0.6746 -0.0945 -0.7321
vn -0.5659 -0.3438 -0.7494
vn -0.6412 -0.4852 -0.5944
vn -0.9131 -0.3795 -0.1493
vn -0.7932 0.2558 0.5526
vn -0.8805 0.0567 0.4707
vn -0.8319 0.1318 0.5390
vn 0.5821 -0.1805 0.7929
vn 0.0478 -0.3933 0.9182
vn 0.6287 -0.4463 0.6368
vn 0.9394 -0.2334 0.2509
vn 0.9163 -0.3021 0.2629
vn 0.4356 -0.7958 -0.4206
vn 0.0111 -0.8252 -0.5648
vn -0.0455 -0.5822 -0.8118
vn -0.2622 -0.9236 -0.2796
vn -0.4421 -0.8488 -0.2901
vn -0.7862 -0.6054 0.1239
vn -0.7470 -0.5808 0.3234
vn -0.3056 -0.7922 0.5283
vn -0.4597 -0.6853 0.5649
vn 0.7593 -0.6507 0.0000
vn 0.6613 -0.7501 -0.0000
vn 0.5179 -0.8413 -0.1546
vn 0.1914 -0.6580 0.7283
vn 0.4446 -0.7801 0.4403
vn 0.4333 -0.6819 0.5893
usemtl None
s off
f 5/1/1 38/2/1 3/3/1
f 5/4/2 3/5/2 36/6/2
f 1/7/3 7/8/3 26/9/3
f 6/10/4 35/11/4 25/12/4
f 2/13/5 9/14/5 32/15/5
f 6/10/6 25/12/6 34/16/6
f 29/17/7 30/18/7 14/19/7
f 24/20/8 20/21/8 15/22/8
f 15/22/9 20/21/9 18/23/9
f 20/21/10 19/24/10 18/23/10
f 18/25/11 16/26/11 15/27/11
f 19/28/12 21/29/12 18/25/12
f 18/25/13 21/29/13 16/26/13
f 21/29/14 17/30/14 16/26/14
f 17/31/15 22/32/15 16/33/15
f 17/31/16 27/34/16 22/32/16
f 22/35/17 23/36/17 16/37/17
f 16/37/18 14/38/18 15/39/18
f 16/37/19 23/36/19 14/38/19
f 23/36/20 29/17/20 14/38/20
f 14/19/21 24/40/21 15/41/21
f 14/19/22 30/18/22 24/40/22
f 8/42/23 20/21/23 24/20/23
f 34/16/24 25/12/24 8/42/24
f 8/42/25 25/12/25 20/21/25
f 25/12/26 19/24/26 20/21/26
f 25/12/27 13/43/27 19/24/27
f 1/7/28 26/9/28 13/43/28
f 13/43/29 26/9/29 19/24/29
f 26/9/30 21/29/30 19/24/30
f 26/9/31 12/44/31 21/29/31
f 12/44/32 17/31/32 21/29/32
f 31/45/33 27/34/33 12/44/33
f 12/44/34 27/34/34 17/31/34
f 31/45/35 28/46/35 27/34/35
f 11/47/36 23/36/36 22/35/36
f 11/47/37 29/17/37 23/36/37
f 32/15/38 9/14/38 11/47/38
f 11/47/39 9/14/39 29/17/39
f 9/14/40 30/18/40 29/17/40
f 9/14/41 10/48/41 30/18/41
f 10/48/42 8/42/42 30/18/42
f 30/18/43 8/42/43 24/20/43
f 25/12/44 35/11/44 13/43/44
f 35/11/45 1/7/45 13/43/45
f 26/9/46 31/45/46 12/44/46
f 26/9/47 7/8/47 31/45/47
f 7/8/48 37/49/48 31/45/48
f 37/49/49 28/46/49 31/45/49
f 27/34/50 11/50/50 22/32/50
f 28/46/51 32/51/51 27/34/51
f 27/34/52 32/51/52 11/50/52
f 33/52/53 10/48/53 9/14/53
f 9/14/54 2/13/54 33/52/54
f 33/52/55 4/53/55 10/48/55
f 10/48/56 34/16/56 8/42/56
f 10/48/57 4/53/57 34/16/57
f 5/54/58 35/11/58 6/55/58
f 5/54/59 7/56/59 35/11/59
f 35/11/60 7/56/60 1/7/60
f 5/57/61 36/58/61 7/8/61
f 36/58/62 37/49/62 7/8/62
f 37/59/63 36/6/63 28/46/63
f 36/6/64 32/51/64 28/46/64
f 3/5/65 2/60/65 36/6/65
f 36/6/66 2/60/66 32/51/66
f 34/16/67 4/61/67 6/10/67
f 4/61/68 38/62/68 6/10/68
f 6/10/69 38/62/69 5/63/69
f 2/13/70 3/3/70 33/52/70
f 38/2/71 4/53/71 3/3/71
f 3/3/72 4/53/72 33/52/72
